<?xml version="1.0" encoding="UTF-8" standalone="no"?>
<!-- Created with Inkscape (http://www.inkscape.org/) -->

<svg
   xmlns:dc="http://purl.org/dc/elements/1.1/"
   xmlns:cc="http://creativecommons.org/ns#"
   xmlns:rdf="http://www.w3.org/1999/02/22-rdf-syntax-ns#"
   xmlns:svg="http://www.w3.org/2000/svg"
   xmlns="http://www.w3.org/2000/svg"
   xmlns:sodipodi="http://sodipodi.sourceforge.net/DTD/sodipodi-0.dtd"
   xmlns:inkscape="http://www.inkscape.org/namespaces/inkscape"
   width="512"
   height="512"
   id="svg2"
   version="1.1"
   inkscape:version="0.91 r13725"
   sodipodi:docname="FuturaFlatWhite.svg">
  <defs
     id="defs4" />
  <sodipodi:namedview
     id="base"
     pagecolor="#ffffff"
     bordercolor="#666666"
     borderopacity="1.0"
     inkscape:pageopacity="0.0"
     inkscape:pageshadow="2"
     inkscape:zoom="0.33333333"
     inkscape:cx="-293.81034"
     inkscape:cy="364.54256"
     inkscape:document-units="px"
     inkscape:current-layer="layer1"
     showgrid="true"
     inkscape:showpageshadow="false"
     guidecolor="#00af96"
     guideopacity="0.39215686"
     guidehicolor="#ff00ff"
     guidehiopacity="1"
     showguides="true"
     inkscape:guide-bbox="true"
     objecttolerance="35"
     guidetolerance="35"
     units="in"
     inkscape:window-width="1600"
     inkscape:window-height="838"
     inkscape:window-x="-8"
     inkscape:window-y="-8"
     inkscape:window-maximized="1"
     inkscape:snap-global="true"
     inkscape:snap-bbox="true"
     inkscape:bbox-paths="true"
     inkscape:bbox-nodes="true"
     inkscape:snap-bbox-edge-midpoints="true"
     inkscape:snap-bbox-midpoints="true"
     inkscape:object-paths="true"
     inkscape:object-nodes="true"
     inkscape:snap-smooth-nodes="true"
     inkscape:snap-midpoints="true"
     inkscape:snap-intersection-paths="true"
     inkscape:snap-object-midpoints="true"
     inkscape:snap-center="true"
     inkscape:snap-page="true"
     fit-margin-top="0"
     fit-margin-left="0"
     fit-margin-right="0"
     fit-margin-bottom="0">
    <inkscape:grid
       type="xygrid"
       id="grid2987"
       empspacing="20"
       visible="true"
       enabled="true"
       snapvisiblegridlinesonly="true"
       units="px"
       spacingx="0.1"
       spacingy="0.1"
       empcolor="#af2d2d"
       empopacity="0.1372549"
       color="#2d90ff"
       opacity="0.09803922"
       originx="0"
       originy="0" />
  </sodipodi:namedview>
  <metadata
     id="metadata7">
    <rdf:RDF>
      <cc:Work
         rdf:about="">
        <dc:format>image/svg+xml</dc:format>
        <dc:type
           rdf:resource="http://purl.org/dc/dcmitype/StillImage" />
        <dc:title></dc:title>
      </cc:Work>
    </rdf:RDF>
  </metadata>
  <g
     inkscape:label="Layer 1"
     inkscape:groupmode="layer"
     id="layer1"
     transform="translate(2.3691931e-8,-540.36197)">
    <path
       style="fill:#ffffff"
       d="m 248.52937,1051.5908 c -13.64421,-2.3002 -25.11781,-9.7346 -38.9928,-25.2656 -17.64361,-19.749 -29.47121,-40.25741 -37.60041,-65.19622 -10.3748,-31.82827 -12.80799,-57.92854 -13.62019,-146.09776 -0.344,-37.35961 -1.2718,-62.93172 -2.8432,-78.37399 -2.9134,-28.63017 -8.0902,-54.06805 -14.715,-72.30793 -7.87561,-21.6839 -22.4696,-40.58316 -34.691,-44.92533 -2.724,-0.96776 -4.184,-1.12221 -8.187195,-0.86608 -11.5712,0.74032 -24.759608,7.19043 -38.847608,18.99913 -3.2392,2.7151 -6.036597,4.93654 -6.216189,4.93654 -0.6592,0 2.944596,-5.61891 7.549193,-11.77043 17.7496,-23.71306 47.596799,-47.83555 67.446199,-54.51015 8.63799,-2.90469 18.69079,-1.57561 30.0402,3.97166 3.50839,1.71474 8.46159,4.68991 11.00739,6.61146 5.83161,4.40179 13.31321,12.38646 18.5638,19.81196 2.233,3.15792 4.51981,6.25844 5.08201,6.89002 2.2288,2.50386 10.6218,21.80537 14.9802,34.45013 4.48179,13.00215 4.60478,13.5114 7.97758,33.01467 l 3.4256,19.80882 1.18441,22.96673 c 1.01399,19.66524 1.2024,31.34431 1.3102,81.24486 0.13193,61.23365 0.3064,66.54205 2.9168,88.99612 4.17899,35.94762 8.89659,56.90237 17.83561,79.22157 5.71259,14.2638 12.49859,25.847 22.38119,38.20382 6.28199,7.8548 17.5808,19.0984 22.45159,22.342 4.82841,3.2156 12.96901,7.1886 19.58841,9.5606 2.8622,1.0256 5.06759,2.1308 4.9512,2.4814 -0.11593,0.3478 -3.79981,1.3204 -8.1872,2.1616 -20.4974,3.9294 -43.8662,5.4822 -54.79079,3.6404 z m -95.5564,-24.146 c -15.4192,-6.1356 -29.95021,-14.1704 -41.91001,-23.1736 -7.95959,-5.99182 -17.985189,-16.53502 -23.294993,-24.49762 -8.933803,-13.39699 -17.902793,-32.94511 -24.033193,-52.38028 -9.016596,-28.58542 -12.704,-48.13578 -15.128,-80.20864 -0.644393,-8.5264 -1.4232,-18.47388 -1.7304,-22.10548 -0.5304,-6.26749 -0.942196,-14.31292 -2.321004,-45.35932 -0.794792,-17.89779 -1.578792,-29.76512 -2.3136,-35.02428 -1.788392,-12.80132 -6.367738,-21.80705 -11.093498,-21.81625 -0.605731,-0.001 -2.189394,1.13532 -3.519194,2.52558 -5.27804,5.51784 -9.463218,21.58644 -11.828818,45.41534 -0.475399,4.78877 -0.724739,15.38752 -0.695619,29.56968 l 0.04521,22.10549 1.82268,10.62213 c 6.136017,35.75895 17.225439,66.54462 36.559766,101.49479 2.353004,4.25375 4.149207,7.86364 3.991011,8.02195 -0.504,0.50486 -4.5344,-3.03955 -10.403607,-9.14912 C 35.508788,921.39851 29.093021,912.28857 21.925946,897.7115 1.2829886,855.72581 -4.9321315,805.75649 3.9111079,752.87337 7.9840287,728.5171 18.133687,700.65174 28.535206,685.26914 c 7.448986,-11.01616 16.013902,-16.98752 24.266092,-16.91794 9.246007,0.078 17.976204,3.68722 24.1568,9.98685 10.357193,10.55699 15.714997,26.77241 18.3232,55.45518 1.779797,19.57363 2.131404,30.29107 2.598604,79.22842 0.586196,61.40969 1.278996,73.01785 5.806398,97.31482 5.58839,29.99088 17.85699,65.85011 28.5844,83.54831 6.37719,10.52102 19.01079,25.77502 27.1056,32.72742 6.8016,5.8418 6.33719,5.9022 -6.40361,0.8326 z m 217.45739,-10.0534 c -11.99981,-1.833 -23.3718,-7.85 -33.91001,-17.94162 -8.219,-7.87099 -14.88339,-17.2314 -21.07959,-29.60759 -13.4566,-26.87732 -20.44261,-56.05337 -22.6334,-94.52326 -1.5584,-27.36348 -1.867,-39.75124 -2.3602,-94.73782 -0.2918,-32.52665 -0.7928,-62.09305 -1.1132,-65.70308 -1.7304,-19.49154 -4.7924,-41.88645 -7.5416,-55.15938 -6.3104,-30.46585 -17.217,-57.35379 -29.03161,-71.57178 -1.61458,-1.94303 -3.3984,-4.28495 -3.964,-5.20425 -1.72599,-2.80484 -7.55259,-9.31092 -14.2,-15.85568 -8.7104,-8.57577 -17.56658,-14.08371 -29.67438,-18.45527 -6.52541,-2.35605 -6.48121,-2.39413 5.30199,-4.5529 14.7062,-2.6943 21.11861,-3.33826 36.18039,-3.63336 16.65441,-0.32631 20.95121,0.1988 28.58981,3.4936 17.47319,7.53669 38.03559,30.45746 55.44819,61.8078 8.83341,15.90384 17.50281,46.61632 20.20281,71.57069 2.19179,20.25696 3.51739,61.48508 3.71719,115.60824 0.13804,37.2464 0.497,46.27515 2.6202,65.82112 3.7902,34.89271 10.7662,63.72544 19.78981,81.79504 6.656,13.32809 18.31459,27.06729 26.29139,30.98329 6.73639,3.30699 14.64858,2.984 24.68499,-1.00741 8.88759,-3.5344 18.44379,-9.64679 27.321,-17.4752 2.10119,-1.8528 3.97779,-3.3688 4.1702,-3.3688 1.16459,0 -5.77781,10.2648 -12.0478,17.8144 -18.1474,21.84981 -45.54999,42.98462 -63.16099,48.71382 -4.4934,1.4616 -9.152,1.8692 -13.60119,1.1894 z m 81.05357,-94.38482 c -10.94899,-2.28052 -19.992,-10.49981 -25.4598,-23.14073 -8.46279,-19.56491 -10.864,-44.15367 -11.76059,-120.43306 -0.62,-52.72201 -1.37141,-68.73561 -4.05381,-86.37874 -5.40238,-35.53319 -18.00998,-73.61181 -31.72718,-95.82503 -3.3348,-5.40039 -9.5358,-14.09376 -12.1984,-17.10125 -0.872,-0.98506 -2.6174,-3.0458 -3.8784,-4.5794 -2.71459,-3.30155 -3.1784,-3.77451 -9.39939,-9.58603 -2.6336,-2.4602 -4.6238,-4.63777 -4.423,-4.83904 0.6136,-0.61467 19.65859,7.20099 27.6974,11.36651 22.44039,11.62781 37.87038,24.33941 48.03537,39.57285 4.25461,6.37608 12.13861,21.4678 16.3472,31.29216 5.04821,11.78464 12.18841,34.61555 15.9894,51.12712 3.5944,15.61259 5.5864,30.03763 7.1728,51.93616 0.49181,6.78953 1.149,15.83268 1.4608,20.09588 0.56121,7.67567 1.1326,18.97632 2.3082,45.6464 1.3188,29.92344 2.238,38.51484 5.00261,46.75996 2.3064,6.87863 4.99719,10.36982 7.99299,10.36982 3.74301,0 8.3242,-7.67712 11.0626,-18.53836 3.9774,-15.77526 5.431,-31.22592 5.4134,-57.53898 -0.0201,-25.68253 -1.166,-35.10466 -7.2104,-59.13935 -6.0312,-23.98237 -17.3222,-51.72865 -31.0572,-76.31879 -5.88379,-10.53418 -5.4648,-10.46368 5.7016,0.95918 12.8908,13.18662 18.311,20.8589 26.0622,36.89032 11.324,23.42107 16.98041,43.52845 20.3998,72.51785 1.2432,10.53971 1.4066,38.21255 0.2888,48.91879 -2.5712,24.62864 -6.3384,41.784 -13.31459,60.6321 -8.51621,23.00944 -19.10261,38.78658 -29.4496,43.88905 -3.2736,1.61437 -4.6032,1.93649 -8.5504,2.07161 -2.57081,0.088 -6.3744,-0.1942 -8.45241,-0.627 z"
       id="fta_black_256"
       inkscape:connector-curvature="0"
       inkscape:label="fta_black_256"
       inkscape:export-filename="C:\Projects\ICOs\PNGs\fta_flat_512.png"
       inkscape:export-xdpi="300"
       inkscape:export-ydpi="300">
      <desc
         id="desc2991">fta_black_256</desc>
      <title
         id="title2989">fta_black_256</title>
    </path>
  </g>
</svg>
